[img]http://img21.imageshack.us/img21/9876/thatsmyboy.jpg[/img]

[b][size=200][color=black]PLOT[/color][/size][/b]

[code]While in his teens, Donny fathered a son, Todd, and raised 
him as a single parent up until Todd's 18th birthday. Now, after not 
seeing each other for years, Todd's world comes crashing down when Donny 
resurfaces just before Todd's wedding.[/code]

[b][size=200][color=black]IMDB[/color][/size][/b]

[code]http://www.imdb.com/title/tt1232200/[/code]

[b][size=200][color=black]MOVIE INFO[/color][/size][/b]

[code]Thats My Boy [2012] BRRip x264 AAC-V3nom

Format                                   : MPEG-4
Format profile                           : Base Media / Version 2
Codec ID                                 : mp42
File size                                : 331 MiB
Duration                                 : 1h 56mn
Overall bit rate mode                    : Variable
Overall bit rate                         : 398 Kbps
Encoded date                             : UTC 2013-01-28 13:14:21
Tagged date                              : UTC 2013-01-28 13:42:09

Video
ID                                       : 1
Format                                   : AVC
Format/Info                              : Advanced Video Codec
Format profile                           : Main@L2.1
Format settings, CABAC                   : Yes
Format settings, ReFrames                : 4 frames
Codec ID                                 : avc1
Codec ID/Info                            : Advanced Video Coding
Duration                                 : 1h 56mn
Bit rate mode                            : Variable
Bit rate                                 : 298 Kbps
Width                                    : 640 pixels
Height                                   : 272 pixels
Display aspect ratio                     : 2.40:1
Frame rate mode                          : Variable
Frame rate                               : 23.976 fps
Minimum frame rate                       : 23.974 fps
Maximum frame rate                       : 23.981 fps
Color space                              : YUV
Chroma subsampling                       : 4:2:0
Bit depth                                : 8 bits
Scan type                                : Progressive
Bits/(Pixel*Frame)                       : 0.071
Stream size                              : 247 MiB (75%)
Writing library                          : x264 core 112

Audio
ID                                       : 2
Format                                   : AAC
Format/Info                              : Advanced Audio Codec
Format profile                           : LC
Codec ID                                 : 40
Duration                                 : 1h 56mn
Bit rate mode                            : Variable
Bit rate                                 : 96.0 Kbps
Maximum bit rate                         : 184 Kbps
Channel(s)                               : 2 channels
Channel positions                        : Front: L R
Sampling rate                            : 48.0 KHz
Compression mode                         : Lossy
Delay relative to video                  : 83ms
Stream size                              : 79.7 MiB (24%)
Encoded date                             : UTC 2013-01-28 13:14:21
Tagged date                              : UTC 2013-01-28 13:42:04[/code]

[b][size=200][color=black]SOURCE[/color][/size][/b]

[code]Thats.My.Boy.2012.BRRip.XVID-AbSurdiTy(Thanks)[/code]

[b][size=200][color=black]SCREENSHOTS[/color][/size][/b]

[img]http://img62.imageshack.us/img62/7386/thatsmyboy2012brripx264.jpg[/img]

[img]http://kastatic.com/i2/users/133df62bbf28e62494bb17fe11078f1a.gif[/img][img]http://kastatic.com/i2/users/133df62bbf28e62494bb17fe11078f1a.gif[/img]